# xmcd CD database file
#
# Track frame offsets:
#	150
#	8780
#	21761
#	32482
#	46912
#	58812
#	71575
#	83601
#	96277
#	106992
#	123827
#	137346
#	149548
#	162110
#	175575
#	188233
#	199002
#	212075
#	223930
#	236373
#	246147
#	257688
#	270806
#	283145
#	295630
#	307871
#	319830
#	332240
#	345400
#	359120
#	372248
#
# Disc length: 5117 seconds
#
# Revision: 0
# Processed by: cddbd v1.5.2PL0 Copyright (c) Steve Scherf et al.
# Submitted via: CDex 1.51
#
DISCID=c813fb1f
DTITLE=VA - Der Jazz in Deutschland - Vol 2 CD 4 - die Swing-Jahre
DYEAR=2008
DGENRE=Jazz
TTITLE0=Tanzfieber (Get Hot Foot) 
TTITLE1=Go! Go!
TTITLE2=Wabash Blues
TTITLE3=White Jazz
TTITLE4=Jazz No Crazy
TTITLE5=The Music Goes 'Round and Around
TTITLE6=Intro - Truckin'/Solitude/I Can't Give You Anything But Love/I Must Have That Man/Diga Diga Doo/Truckin
TTITLE7=Showboat Shuffle
TTITLE8=Goody, Goody 
TTITLE9=Christopher Columbus (Foxtrot aus dem Tonfilm: A Rhythm Cocktail)
TTITLE10=Seefischball [At The Codfish Ball]
TTITLE11=Hofkonzert im Hinterhaus (Organ Grinder's Swing) - Swing-Foxtrot
TTITLE12=Schöne Geschichten
TTITLE13=Dinah
TTITLE14=Crazy Jacob
TTITLE15=I'm Not Giving Up My Heart
TTITLE16=Jammin'
TTITLE17=Le Suzy-Kiou [Doin' The Suzy Q]
TTITLE18=Some Of These Days (Bald kommt der Tag)
TTITLE19=China Boy
TTITLE20=Evelyn
TTITLE21=Frasquita
TTITLE22=Finden Sie es nicht gefährlich? 
TTITLE23=Says My Heart 
TTITLE24=Everybody Jam 
TTITLE25=Limehouse Blues 
TTITLE26=Schwingende Rhythmen 
TTITLE27=Shades Of Hades
TTITLE28=Tiger Rag
TTITLE29=Hick Stomp
TTITLE30=Golfstrom
EXTD=YEAR: 2008
EXTT0=
EXTT1=
EXTT2=
EXTT3=
EXTT4=
EXTT5=
EXTT6=
EXTT7=
EXTT8=
EXTT9=
EXTT10=
EXTT11=
EXTT12=
EXTT13=
EXTT14=
EXTT15=
EXTT16=
EXTT17=
EXTT18=
EXTT19=
EXTT20=
EXTT21=
EXTT22=
EXTT23=
EXTT24=
EXTT25=
EXTT26=
EXTT27=
EXTT28=
EXTT29=
EXTT30=
PLAYORDER=
